<?xml version="1.0" encoding="utf-8"?>
<svg viewBox="33.14 121.342 387.581 229.429" xmlns="http://www.w3.org/2000/svg" xmlns:bx="https://boxy-svg.com">
  <defs>
    <style bx:fonts="Bakbak One">@import url(https://fonts.googleapis.com/css2?family=Bakbak+One%3Aital%2Cwght%400%2C400&amp;display=swap);</style>
  </defs>
  <path d="M 128.234 274.114 C 123.133 275.01 117.942 275.278 112.572 275.993 L 96.193 228.022 L 96.193 278.052 C 91.092 278.589 86.438 279.305 81.605 280.021 L 81.605 188.373 L 95.209 188.373 L 113.825 240.373 L 113.825 188.373 L 128.234 188.373 L 128.234 274.114 Z M 156.427 221.936 C 161.976 221.936 170.479 221.667 175.58 221.667 L 175.58 235.987 C 169.225 235.987 161.797 235.987 156.427 236.255 L 156.427 257.557 C 164.84 257.02 173.253 256.303 181.755 256.035 L 181.755 269.817 L 142.106 272.95 L 142.106 188.373 L 181.755 188.373 L 181.755 202.693 L 156.427 202.693 L 156.427 221.936 Z M 235.008 202.693 L 220.151 202.693 L 220.151 268.565 C 215.318 268.565 210.485 268.565 205.831 268.744 L 205.831 202.693 L 190.975 202.693 L 190.975 188.373 L 235.008 188.373 L 235.008 202.693 Z M 258.278 220.951 L 277.878 220.951 L 277.878 235.271 L 258.278 235.271 L 258.278 267.76 L 244.225 267.76 L 244.225 188.373 L 284.233 188.373 L 284.233 202.693 L 258.278 202.693 L 258.278 220.951 Z M 307.503 255.23 C 315.647 255.408 323.881 256.036 331.847 256.482 L 331.847 270.624 C 319.049 269.818 306.25 269.013 293.183 268.744 L 293.183 188.373 L 307.503 188.373 L 307.503 255.23 Z M 343.929 271.608 C 348.494 271.877 353.327 272.146 357.981 272.682 L 357.981 188.373 L 343.929 188.373 L 343.929 271.608 Z M 420.721 188.373 L 402.552 231.96 L 420.721 280.021 C 415.35 279.305 409.98 278.321 404.61 277.425 L 394.318 250.934 L 383.848 275.278 C 378.656 274.382 373.644 274.114 368.454 273.398 L 386.89 231.422 L 370.243 188.373 L 385.636 188.373 L 395.034 212.449 L 405.058 188.373 L 420.721 188.373 Z" fill="#d81f26" style=""/>
  <text style="fill: rgb(216, 31, 37); font-family: &quot;Bakbak One&quot;; font-size: 135.1px; white-space: pre;" transform="matrix(1.827186, -0.018348, 0, 1.206103, -102.837494, -37.225559)" x="74.419" y="275.508">J</text>
</svg>